<svg xmlns="http://www.w3.org/2000/svg" viewBox="0 0 841.89 595.28"><defs><style>.cls-1{fill:#aed151;}.cls-2{fill:#1a1a1a;}</style></defs><title>Curium White BG</title><g id="DOTS"><circle class="cls-1" cx="137.24" cy="259.8" r="6.24" transform="translate(-106.39 95.55) rotate(-28.17)"/><circle class="cls-1" cx="128.49" cy="243.49" r="6.24" transform="translate(-99.72 89.49) rotate(-28.17)"/><circle class="cls-1" cx="119.66" cy="226.98" r="6.24" transform="translate(-92.97 83.35) rotate(-28.16)"/><circle class="cls-1" cx="110.76" cy="210.38" r="6.24" transform="translate(-86.21 77.22) rotate(-28.17)"/><circle class="cls-1" cx="102.21" cy="194.43" r="6.24" transform="translate(-79.69 71.3) rotate(-28.18)"/><circle class="cls-1" cx="93.16" cy="177.52" r="6.24" transform="translate(-72.78 65.02) rotate(-28.18)"/><circle class="cls-1" cx="313.05" cy="268.85" r="6.24" transform="translate(-89.87 179.77) rotate(-28.19)"/><path class="cls-1" d="M229.6,401.51a6.24,6.24,0,1,0,8.45,2.55A6.24,6.24,0,0,0,229.6,401.51Z"/><circle class="cls-1" cx="206.07" cy="421.19" r="6.24" transform="translate(-174.45 147.19) rotate(-28.17)"/><path class="cls-1" d="M208,391.85a6.24,6.24,0,1,0,8.45,2.56A6.24,6.24,0,0,0,208,391.85Z"/><path class="cls-1" d="M199.08,375.25a6.24,6.24,0,1,0,8.45,2.55A6.24,6.24,0,0,0,199.08,375.25Z"/><circle class="cls-1" cx="251.12" cy="265.83" r="6.24" transform="translate(-95.77 150.11) rotate(-28.18)"/><circle class="cls-1" cx="181.16" cy="253.97" r="6.24" transform="translate(-98.46 115.66) rotate(-28.18)"/><path class="cls-1" d="M236.54,367.77a6.24,6.24,0,1,0,8.45,2.55A6.24,6.24,0,0,0,236.54,367.77Z"/><circle class="cls-1" cx="226.58" cy="387.26" r="6.24" transform="translate(-156.08 152.98) rotate(-28.19)"/><path class="cls-1" d="M251.63,380.92a6.24,6.24,0,1,0,8.45,2.56A6.23,6.23,0,0,0,251.63,380.92Z"/><path class="cls-1" d="M266,392.35a6.24,6.24,0,1,0,8.45,2.55A6.25,6.25,0,0,0,266,392.35Z"/><path class="cls-1" d="M274.21,231.61a6.24,6.24,0,1,0,8.45,2.55A6.24,6.24,0,0,0,274.21,231.61Z"/><circle class="cls-1" cx="244.93" cy="227.83" r="6.24" transform="translate(-78.54 142.58) rotate(-28.16)"/><circle class="cls-1" cx="264.68" cy="251.49" r="6.24" transform="translate(-87.37 154.74) rotate(-28.17)"/><circle class="cls-1" cx="240.58" cy="251.4" r="6.24" transform="translate(-90.2 143.39) rotate(-28.18)"/><circle class="cls-1" cx="205.05" cy="244.84" r="6.24" transform="translate(-91.33 125.88) rotate(-28.18)"/><circle class="cls-1" cx="180.39" cy="234.71" r="6.24" transform="translate(-89.47 113.03) rotate(-28.18)"/><circle class="cls-1" cx="152.39" cy="235.55" r="6.24" transform="translate(-93.16 99.85) rotate(-28.17)"/><circle class="cls-1" cx="210.47" cy="225.68" r="6.24" transform="translate(-81.63 126.15) rotate(-28.18)"/><path class="cls-1" d="M225.34,217.71a6.24,6.24,0,1,0-8.45-2.55A6.23,6.23,0,0,0,225.34,217.71Z"/><circle class="cls-1" cx="195.03" cy="200.76" r="6.24" transform="translate(-71.69 115.89) rotate(-28.18)"/><circle class="cls-1" cx="167.19" cy="196.85" r="6.24" transform="translate(-73.15 102.29) rotate(-28.18)"/><circle class="cls-1" cx="206.07" cy="181.31" r="6.24" transform="translate(-61.2 118.8) rotate(-28.18)"/><circle class="cls-1" cx="137.02" cy="220.09" r="6.24" transform="translate(-87.68 90.77) rotate(-28.17)"/><circle class="cls-1" cx="154.83" cy="215.22" r="6.24" transform="translate(-83.26 98.59) rotate(-28.17)"/><circle class="cls-1" cx="174.72" cy="216.51" r="6.24" transform="translate(-81.52 108.13) rotate(-28.17)"/><circle class="cls-1" cx="192.49" cy="218.54" r="6.24" transform="translate(-80.37 116.74) rotate(-28.17)"/><circle class="cls-1" cx="225.84" cy="237.11" r="6.24" transform="translate(-85.19 134.73) rotate(-28.18)"/><circle class="cls-1" cx="137.35" cy="200.08" r="6.24" transform="translate(-78.2 88.56) rotate(-28.18)"/><circle class="cls-1" cx="112.62" cy="340.29" r="6.24" transform="translate(-147.32 93.49) rotate(-28.17)"/><path class="cls-1" d="M76.22,352.41A6.24,6.24,0,1,0,84.66,355,6.25,6.25,0,0,0,76.22,352.41Z"/><path class="cls-1" d="M111,298.61a6.24,6.24,0,1,0-8.45-2.56A6.24,6.24,0,0,0,111,298.61Z"/><circle class="cls-1" cx="176.2" cy="389.62" r="6.24" transform="translate(-163.09 129.37) rotate(-28.18)"/><circle class="cls-1" cx="149.51" cy="388.32" r="6.24" transform="translate(-165.6 116.57) rotate(-28.17)"/><circle class="cls-1" cx="125.13" cy="378.72" r="6.24" transform="translate(-164.02 103.99) rotate(-28.18)"/><circle class="cls-1" cx="103.8" cy="359.18" r="6.24" transform="translate(-157.24 91.52) rotate(-28.16)"/><path class="cls-1" d="M93.26,379a6.24,6.24,0,1,0-8.45-2.55A6.24,6.24,0,0,0,93.26,379Z"/><path class="cls-1" d="M80.93,382.23a6.24,6.24,0,1,0-2.56,8.45A6.24,6.24,0,0,0,80.93,382.23Z"/><path class="cls-1" d="M94.45,399.67a6.24,6.24,0,1,0,8.45,2.55A6.23,6.23,0,0,0,94.45,399.67Z"/><path class="cls-1" d="M101.74,381.59a6.24,6.24,0,1,0,8.45,2.55A6.25,6.25,0,0,0,101.74,381.59Z"/><circle class="cls-1" cx="119.43" cy="397.35" r="6.24" transform="translate(-173.48 103.49) rotate(-28.18)"/><path class="cls-1" d="M134,398.08a6.24,6.24,0,1,0,8.45,2.55A6.23,6.23,0,0,0,134,398.08Z"/><path class="cls-1" d="M152.84,402.14a6.24,6.24,0,1,0,8.45,2.55A6.23,6.23,0,0,0,152.84,402.14Z"/><circle class="cls-1" cx="175.04" cy="407.76" r="6.24" transform="translate(-171.77 130.94) rotate(-28.17)"/><circle class="cls-1" cx="193.85" cy="404.76" r="6.24" transform="translate(-168.11 139.44) rotate(-28.17)"/><circle class="cls-1" cx="175.38" cy="427.02" r="6.24" transform="translate(-180.86 133.43) rotate(-28.18)"/><path class="cls-1" d="M172.58,440.87a6.24,6.24,0,1,0,8.45,2.55A6.24,6.24,0,0,0,172.58,440.87Z"/><circle class="cls-1" cx="121.68" cy="418.83" r="6.24" transform="translate(-183.34 107.08) rotate(-28.18)"/><circle class="cls-1" cx="84.07" cy="421.19" r="6.24" transform="translate(-188.88 89.58) rotate(-28.17)"/><path class="cls-1" d="M147.32,420.77a6.24,6.24,0,1,0,8.45,2.56A6.25,6.25,0,0,0,147.32,420.77Z"/><circle class="cls-1" cx="37.18" cy="353.25" r="6.24" transform="translate(-162.36 59.39) rotate(-28.17)"/><path class="cls-1" d="M56.46,328.76a6.24,6.24,0,1,0-2.55,8.45A6.24,6.24,0,0,0,56.46,328.76Z"/><circle class="cls-1" cx="59.71" cy="361.25" r="6.24" transform="translate(-163.51 71.01) rotate(-28.18)"/><circle class="cls-1" cx="72.99" cy="341.14" r="6.24" transform="translate(-152.46 74.91) rotate(-28.18)"/><circle class="cls-1" cx="91.89" cy="336.94" r="6.24" transform="translate(-148.17 83.28) rotate(-28.17)"/><path class="cls-1" d="M81.71,310.88a6.24,6.24,0,1,0,2.55-8.45A6.25,6.25,0,0,0,81.71,310.88Z"/><circle class="cls-1" cx="92.44" cy="281.79" r="6.24" transform="translate(-122.06 77) rotate(-28.16)"/><circle class="cls-1" cx="108.66" cy="258.94" r="6.24" transform="translate(-109.38 81.98) rotate(-28.17)"/><path class="cls-1" d="M71.2,307.33a6.24,6.24,0,1,0-8.45-2.56A6.24,6.24,0,0,0,71.2,307.33Z"/><circle class="cls-1" cx="50.44" cy="304.29" r="6.24" transform="translate(-137.7 59.87) rotate(-28.18)"/><circle class="cls-1" cx="56.07" cy="275.17" r="6.24" transform="translate(-123.3 59.09) rotate(-28.18)"/><path class="cls-1" d="M71.19,255.32a6.24,6.24,0,1,0-8.45-2.55A6.24,6.24,0,0,0,71.19,255.32Z"/><path class="cls-1" d="M44.68,267.12a6.24,6.24,0,1,0-8.45-2.55A6.24,6.24,0,0,0,44.68,267.12Z"/><circle class="cls-1" cx="104.3" cy="237.58" r="6.24" transform="matrix(0.88, -0.47, 0.47, 0.88, -99.83, 77.41)"/><circle class="cls-1" cx="90.38" cy="249.71" r="6.24" transform="translate(-107.17 72.24) rotate(-28.17)"/><circle class="cls-1" cx="80.43" cy="266.99" r="6.24" transform="translate(-116.55 69.63) rotate(-28.18)"/><circle class="cls-1" cx="72.28" cy="282.9" r="6.24" transform="translate(-124.98 67.62) rotate(-28.17)"/><path class="cls-1" d="M72.21,326.46a6.24,6.24,0,1,0-8.45-2.55A6.24,6.24,0,0,0,72.21,326.46Z"/><circle class="cls-1" cx="87.46" cy="226.77" r="6.24" transform="translate(-96.68 68.13) rotate(-28.16)"/></g><g id="Break_Line" data-name="Break Line"><rect class="cls-1" x="528.5" y="202.28" width="3.25" height="223"/></g><g id="TEXT"><path class="cls-2" d="M574.77,230.77a3.38,3.38,0,0,0,.5,1.91,3.75,3.75,0,0,0,1.33,1.21,8.59,8.59,0,0,0,1.92.76q1.09.3,2.26.54,1.6.36,3,.79a9,9,0,0,1,2.64,1.3,6.28,6.28,0,0,1,2,2.34,8.52,8.52,0,0,1,.74,3.83,8.33,8.33,0,0,1-.83,3.8,7.71,7.71,0,0,1-2.35,2.77,11,11,0,0,1-3.63,1.7,17.54,17.54,0,0,1-4.65.58,22.11,22.11,0,0,1-2.81-.16,18.15,18.15,0,0,1-2.23-.42,15.1,15.1,0,0,1-1.65-.52,10.75,10.75,0,0,1-1.13-.51v-3.87a24.38,24.38,0,0,0,3.48,1.13,16.16,16.16,0,0,0,3.8.42,13.4,13.4,0,0,0,3-.3,7.5,7.5,0,0,0,2.27-.88,4.16,4.16,0,0,0,1.46-1.46,4,4,0,0,0,.51-2,3.76,3.76,0,0,0-.47-2,3.92,3.92,0,0,0-1.26-1.28,7.63,7.63,0,0,0-1.83-.83q-1-.33-2.18-.6-1.49-.33-3-.77a10.69,10.69,0,0,1-2.79-1.25,6,6,0,0,1-2-2.19,7.24,7.24,0,0,1-.77-3.56,8.7,8.7,0,0,1,.8-3.87,7.68,7.68,0,0,1,2.17-2.71,9.45,9.45,0,0,1,3.19-1.61,13.51,13.51,0,0,1,3.84-.54,20.11,20.11,0,0,1,4.36.45,21.62,21.62,0,0,1,3.65,1.13V228a27,27,0,0,0-3.53-1.12,16.75,16.75,0,0,0-3.68-.46,9.94,9.94,0,0,0-2.73.33,5.32,5.32,0,0,0-1.86.91,3.48,3.48,0,0,0-1.06,1.37A4.41,4.41,0,0,0,574.77,230.77Z"/><path class="cls-2" d="M596.31,216.65V211.5h4.62v5.15Zm.12,34.88v-28.3H601v28.3Z"/><path class="cls-2" d="M633.39,251.53h-4.62v-18.2a10.71,10.71,0,0,0-.4-3.14,5.55,5.55,0,0,0-1.16-2.13,4.54,4.54,0,0,0-1.82-1.22,6.86,6.86,0,0,0-2.37-.39,8,8,0,0,0-4.5,1.33,13.37,13.37,0,0,0-3.63,3.65v20.1h-4.62v-28.3h3.57l.89,3.93h.09a16.26,16.26,0,0,1,1.68-1.83,10.89,10.89,0,0,1,2-1.49,10.19,10.19,0,0,1,2.46-1,11.3,11.3,0,0,1,2.92-.36,8.67,8.67,0,0,1,5.24,1.52,9.8,9.8,0,0,1,3.22,4.14h.12a15,15,0,0,1,4.3-4.15,10.44,10.44,0,0,1,5.64-1.5,13.08,13.08,0,0,1,3.16.42,8,8,0,0,1,3.07,1.53,8.45,8.45,0,0,1,2.33,3.08,12,12,0,0,1,.92,5.06v18.94H647.3v-18.2a10.71,10.71,0,0,0-.4-3.14,5.55,5.55,0,0,0-1.16-2.13,4.54,4.54,0,0,0-1.82-1.22,6.86,6.86,0,0,0-2.37-.39,8.11,8.11,0,0,0-4.51,1.33,13.28,13.28,0,0,0-3.65,3.65Z"/><path class="cls-2" d="M685.9,237.05a21.13,21.13,0,0,1-.58,5.23,16.33,16.33,0,0,1-1.54,4,11,11,0,0,1-2.24,2.84,12.58,12.58,0,0,1-2.66,1.85,11.68,11.68,0,0,1-2.8,1,12.44,12.44,0,0,1-2.68.31,11.07,11.07,0,0,1-4.52-.85,10.3,10.3,0,0,1-3.44-2.52h-.09v16.47h-4.53V223.23h3.49l1,3.22h.09a6.21,6.21,0,0,1,1-1.16,11,11,0,0,1,1.64-1.21,11.47,11.47,0,0,1,2.47-1.12,10,10,0,0,1,3.14-.48,13.4,13.4,0,0,1,4.6.8,10.25,10.25,0,0,1,3.92,2.56,12.87,12.87,0,0,1,2.73,4.51A19.21,19.21,0,0,1,685.9,237.05Zm-4.83.06a17.24,17.24,0,0,0-.52-4.44,9.59,9.59,0,0,0-1.57-3.35,7.1,7.1,0,0,0-2.58-2.13,8,8,0,0,0-3.54-.74,8.41,8.41,0,0,0-2.62.39,9.83,9.83,0,0,0-2.14,1,9.23,9.23,0,0,0-1.65,1.28,13.47,13.47,0,0,0-1.11,1.22v14.8a11.3,11.3,0,0,0,3.34,2.35,9.49,9.49,0,0,0,4,.86,8.77,8.77,0,0,0,2.79-.49,6.85,6.85,0,0,0,2.71-1.76,9.65,9.65,0,0,0,2.05-3.44A16.1,16.1,0,0,0,681.08,237.11Z"/><path class="cls-2" d="M693.5,251.53V208.4h4.62v43.13Z"/><path class="cls-2" d="M707.53,216.65V211.5h4.62v5.15Zm.12,34.88v-28.3h4.62v28.3Z"/><path class="cls-2" d="M727.51,227.2v24.33h-4.62V227.2h-5v-4h5v-3.31a13.17,13.17,0,0,1,1.12-5.7,10.61,10.61,0,0,1,2.95-3.8,11.66,11.66,0,0,1,4.18-2.11,17.91,17.91,0,0,1,4.83-.66q.89,0,1.86.07t1.91.21q.94.13,1.8.31a15.34,15.34,0,0,1,1.52.39v3.93q-1.7-.42-3.25-.66a21.77,21.77,0,0,0-3.31-.24q-4.38,0-6.69,2.06T727.51,220v3.22H745v28.3h-4.62V227.2Z"/><path class="cls-2" d="M767.63,248.25a21.75,21.75,0,0,0,4.19-.37,25.13,25.13,0,0,0,3.77-1.06v3.84a15.06,15.06,0,0,1-3.75,1.18,25.25,25.25,0,0,1-4.8.43,20.35,20.35,0,0,1-5.7-.77,11.82,11.82,0,0,1-4.62-2.5,11.63,11.63,0,0,1-3.05-4.51,18.25,18.25,0,0,1-1.1-6.72,19.08,19.08,0,0,1,1.07-6.72,14.14,14.14,0,0,1,2.85-4.75,11.64,11.64,0,0,1,4.1-2.86,12.61,12.61,0,0,1,4.84-1,12.33,12.33,0,0,1,4.44.79,9.1,9.1,0,0,1,3.58,2.49,12.16,12.16,0,0,1,2.39,4.38,20.8,20.8,0,0,1,.88,6.43v.61q0,.25,0,1.15H757.15a11.57,11.57,0,0,0,.82,4.6A8.08,8.08,0,0,0,760.2,246a8.87,8.87,0,0,0,3.32,1.71A15.12,15.12,0,0,0,767.63,248.25Zm-2.43-21.8a7.07,7.07,0,0,0-3,.63,7.7,7.7,0,0,0-2.4,1.7,8.59,8.59,0,0,0-1.66,2.52,9.87,9.87,0,0,0-.79,3.08h14.48a10.71,10.71,0,0,0-.44-3.11,7.56,7.56,0,0,0-1.28-2.52,6,6,0,0,0-2.08-1.68A6.4,6.4,0,0,0,765.2,226.45Z"/><path class="cls-2" d="M782.91,237.74a21.27,21.27,0,0,1,.58-5.23,16.36,16.36,0,0,1,1.53-4,11,11,0,0,1,2.23-2.84,13,13,0,0,1,2.65-1.86,11.24,11.24,0,0,1,2.79-1,12.33,12.33,0,0,1,2.67-.31,10.82,10.82,0,0,1,4.5.86,10.47,10.47,0,0,1,3.43,2.53h.09V208.4H808v43.13h-3.48l-1-3.16h-.12a14.12,14.12,0,0,1-1.25,1.38A8.58,8.58,0,0,1,800.5,251a9.15,9.15,0,0,1-2.23.91,11.29,11.29,0,0,1-2.93.34,13.58,13.58,0,0,1-4.56-.79,10.53,10.53,0,0,1-4-2.53,12.84,12.84,0,0,1-2.81-4.5A18.57,18.57,0,0,1,782.91,237.74Zm4.82-.06a16.46,16.46,0,0,0,.55,4.42,10,10,0,0,0,1.59,3.37,7.05,7.05,0,0,0,2.56,2.13,7.81,7.81,0,0,0,3.48.74,8.54,8.54,0,0,0,2.65-.39,9.39,9.39,0,0,0,3.74-2.25,8.85,8.85,0,0,0,1.06-1.24v-14.8a11.3,11.3,0,0,0-3.31-2.34,9.43,9.43,0,0,0-4.05-.88,8.57,8.57,0,0,0-2.76.49,6.77,6.77,0,0,0-2.68,1.77,9.82,9.82,0,0,0-2,3.44A16,16,0,0,0,787.74,237.68Z"/><path class="cls-2" d="M583.62,293.49a17.47,17.47,0,0,1,3.93.43,11.62,11.62,0,0,1,3.22,1.21V299a25.79,25.79,0,0,0-3.46-1.07,14.53,14.53,0,0,0-3.22-.36,10.77,10.77,0,0,0-3.42.57,8,8,0,0,0-3,1.86,9.36,9.36,0,0,0-2.16,3.43,14.83,14.83,0,0,0-.82,5.29,14,14,0,0,0,.61,4.23,9.5,9.5,0,0,0,1.82,3.35,8.2,8.2,0,0,0,3,2.2,10.45,10.45,0,0,0,4.2.79,16.79,16.79,0,0,0,3.49-.37,19.73,19.73,0,0,0,3.42-1.06v3.84a8.23,8.23,0,0,1-1.33.6,15,15,0,0,1-1.8.52,20.42,20.42,0,0,1-2.08.36,18.14,18.14,0,0,1-2.2.13,16.71,16.71,0,0,1-5.41-.86,12.13,12.13,0,0,1-4.45-2.65,12.48,12.48,0,0,1-3-4.53,17.37,17.37,0,0,1-1.1-6.49,20.06,20.06,0,0,1,.58-5,15,15,0,0,1,1.59-3.93,12,12,0,0,1,2.37-2.89,13.22,13.22,0,0,1,6.06-3.05A15.57,15.57,0,0,1,583.62,293.49Z"/><path class="cls-2" d="M603.13,298.11h.09a14.34,14.34,0,0,1,1.73-1.83,10.52,10.52,0,0,1,2.12-1.46,12,12,0,0,1,2.5-1,11.17,11.17,0,0,1,2.89-.36,12.35,12.35,0,0,1,3.22.43,8,8,0,0,1,3,1.53,8,8,0,0,1,2.23,3.07,12.7,12.7,0,0,1,.86,5.06v18.94h-4.62v-18.2a8.54,8.54,0,0,0-1.29-5.15,5,5,0,0,0-4.24-1.73,8.88,8.88,0,0,0-4.65,1.33,12.42,12.42,0,0,0-3.81,3.65v20.11h-4.62V279.4h4.62Z"/><path class="cls-2" d="M647.24,319.4h-.12a9.17,9.17,0,0,1-1.43,1.41,10.36,10.36,0,0,1-2,1.25,12.29,12.29,0,0,1-2.47.88,12,12,0,0,1-2.86.33,11.14,11.14,0,0,1-3.77-.61,8.22,8.22,0,0,1-2.95-1.79,8.08,8.08,0,0,1-1.92-2.87,10.19,10.19,0,0,1-.68-3.84,9,9,0,0,1,.76-3.78,8,8,0,0,1,2.13-2.83,9.67,9.67,0,0,1,3.29-1.79,13.68,13.68,0,0,1,4.24-.62,23.51,23.51,0,0,1,4.08.39,21.22,21.22,0,0,1,3.34.89H647v-2a12.58,12.58,0,0,0-.15-2.05,5.25,5.25,0,0,0-.51-1.58,6,6,0,0,0-2.47-2.37,9.5,9.5,0,0,0-4.59-.94,19.35,19.35,0,0,0-4,.4,25.39,25.39,0,0,0-3.77,1.12v-3.87a12.17,12.17,0,0,1,1.68-.67,19.9,19.9,0,0,1,2-.54,21.87,21.87,0,0,1,2.26-.34q1.19-.12,2.38-.12a14.32,14.32,0,0,1,7,1.52,9,9,0,0,1,3.92,4,8,8,0,0,1,.64,2.1,15.17,15.17,0,0,1,.19,2.52v18.88h-3.87Zm-.24-9.29q-1.28-.36-3-.69a22.68,22.68,0,0,0-3.85-.36,7.49,7.49,0,0,0-4.6,1.25,4.5,4.5,0,0,0-1.66,3.84,5.85,5.85,0,0,0,.42,2.29,4.39,4.39,0,0,0,1.14,1.62,4.66,4.66,0,0,0,1.72,1,7,7,0,0,0,2.12.31,8.54,8.54,0,0,0,2.76-.43,11.67,11.67,0,0,0,2.27-1,12.44,12.44,0,0,0,1.69-1.19q.7-.59,1-.92Z"/><path class="cls-2" d="M665,298.17h.09a14.93,14.93,0,0,1,1.71-1.83,11.13,11.13,0,0,1,2.1-1.49,10.88,10.88,0,0,1,2.55-1,12.75,12.75,0,0,1,6.66.18,7.48,7.48,0,0,1,2.95,1.73,8.28,8.28,0,0,1,2,3.11,13.37,13.37,0,0,1,.73,4.72v18.94h-4.62v-18.2q0-3.66-1.42-5.27a5.2,5.2,0,0,0-4.13-1.61,8.93,8.93,0,0,0-4.62,1.33,12.3,12.3,0,0,0-3.84,3.65v20.11h-4.62v-28.3h3.57Z"/><path class="cls-2" d="M703.68,293.49a11,11,0,0,1,3.22.48,9.25,9.25,0,0,1,2.35,1.12,8.45,8.45,0,0,1,1.56,1.33,6.2,6.2,0,0,1,.79,1h.12l1-3.22h3.48v30a14,14,0,0,1-1.07,5.7,10.86,10.86,0,0,1-3,4,12.74,12.74,0,0,1-4.66,2.4,21.63,21.63,0,0,1-6,.79,23.13,23.13,0,0,1-5-.49,13.51,13.51,0,0,1-3.46-1.18v-3.9a20.65,20.65,0,0,0,2,.7,20.16,20.16,0,0,0,4,.76q1.06.09,2.34.09,5,0,7.63-2.32t2.65-7.09v-3.78h-.09a10,10,0,0,1-3.53,2.52,11.73,11.73,0,0,1-4.6.85,13.38,13.38,0,0,1-2.56-.27,11.82,11.82,0,0,1-5.36-2.61,10.46,10.46,0,0,1-2.2-2.65,14.72,14.72,0,0,1-1.53-3.77,19.61,19.61,0,0,1-.58-5,19.82,19.82,0,0,1,1.07-6.87,14.31,14.31,0,0,1,2.83-4.81,11.35,11.35,0,0,1,4-2.84A12.11,12.11,0,0,1,703.68,293.49Zm-7.77,15.07a15.55,15.55,0,0,0,.8,5.45,8.76,8.76,0,0,0,2,3.29,6.62,6.62,0,0,0,2.7,1.61,9.76,9.76,0,0,0,2.77.43,9.5,9.5,0,0,0,4-.86,10.8,10.8,0,0,0,3.31-2.35v-14.8a10.4,10.4,0,0,0-1.07-1.22,9.44,9.44,0,0,0-1.59-1.27,9.76,9.76,0,0,0-2.07-1,8.31,8.31,0,0,0-6.15.42,7.5,7.5,0,0,0-2.62,2.28,10.41,10.41,0,0,0-1.59,3.5A17.74,17.74,0,0,0,695.91,308.56Z"/><path class="cls-2" d="M738.53,319.25a21.75,21.75,0,0,0,4.19-.37,25.08,25.08,0,0,0,3.77-1.06v3.84a15.06,15.06,0,0,1-3.75,1.18,25.25,25.25,0,0,1-4.8.43,20.37,20.37,0,0,1-5.7-.77,11.83,11.83,0,0,1-4.62-2.5,11.64,11.64,0,0,1-3.05-4.51,18.25,18.25,0,0,1-1.1-6.72,19.08,19.08,0,0,1,1.07-6.72,14.15,14.15,0,0,1,2.85-4.75,11.64,11.64,0,0,1,4.1-2.86,12.61,12.61,0,0,1,4.84-1,12.33,12.33,0,0,1,4.44.79,9.1,9.1,0,0,1,3.58,2.49,12.16,12.16,0,0,1,2.39,4.38,20.8,20.8,0,0,1,.88,6.43v.61q0,.25,0,1.15H728a11.57,11.57,0,0,0,.82,4.6A8.08,8.08,0,0,0,731.1,317a8.86,8.86,0,0,0,3.32,1.71A15.12,15.12,0,0,0,738.53,319.25Zm-2.43-21.8a7.07,7.07,0,0,0-3,.63,7.7,7.7,0,0,0-2.4,1.7,8.59,8.59,0,0,0-1.66,2.52,9.87,9.87,0,0,0-.79,3.08h14.48a10.71,10.71,0,0,0-.44-3.11,7.55,7.55,0,0,0-1.28-2.52,6,6,0,0,0-2.08-1.68A6.4,6.4,0,0,0,736.1,297.45Z"/><path class="cls-2" d="M574.77,373.77a3.38,3.38,0,0,0,.5,1.91,3.74,3.74,0,0,0,1.33,1.21,8.54,8.54,0,0,0,1.92.76q1.09.3,2.26.54,1.6.36,3,.79a9,9,0,0,1,2.64,1.29,6.28,6.28,0,0,1,2,2.34,8.52,8.52,0,0,1,.74,3.83,8.33,8.33,0,0,1-.83,3.8,7.71,7.71,0,0,1-2.35,2.77,11,11,0,0,1-3.63,1.7,17.54,17.54,0,0,1-4.65.58,22.21,22.21,0,0,1-2.81-.16,18.24,18.24,0,0,1-2.23-.42,15.1,15.1,0,0,1-1.65-.52,11,11,0,0,1-1.13-.51v-3.87a24.45,24.45,0,0,0,3.48,1.13,16.22,16.22,0,0,0,3.8.42,13.43,13.43,0,0,0,3-.3,7.53,7.53,0,0,0,2.27-.88,4.16,4.16,0,0,0,1.46-1.46,4,4,0,0,0,.51-2,3.76,3.76,0,0,0-.47-2,3.92,3.92,0,0,0-1.26-1.28,7.61,7.61,0,0,0-1.83-.83q-1-.33-2.18-.6-1.49-.33-3-.78a10.69,10.69,0,0,1-2.79-1.25,6.06,6.06,0,0,1-2-2.19,7.24,7.24,0,0,1-.77-3.56,8.7,8.7,0,0,1,.8-3.87,7.69,7.69,0,0,1,2.17-2.71,9.45,9.45,0,0,1,3.19-1.61,13.51,13.51,0,0,1,3.84-.54,20.11,20.11,0,0,1,4.36.45,21.67,21.67,0,0,1,3.65,1.13V371a27.09,27.09,0,0,0-3.53-1.12,16.76,16.76,0,0,0-3.68-.46,9.92,9.92,0,0,0-2.73.33,5.32,5.32,0,0,0-1.86.91,3.47,3.47,0,0,0-1.06,1.37A4.41,4.41,0,0,0,574.77,373.77Z"/><path class="cls-2" d="M621.36,380.41a18.39,18.39,0,0,1-1,6.08,13.69,13.69,0,0,1-2.7,4.69,12,12,0,0,1-4.21,3,13.78,13.78,0,0,1-5.54,1.07,14.13,14.13,0,0,1-5.64-1.07,11.92,11.92,0,0,1-4.23-3,13.32,13.32,0,0,1-2.67-4.69,19,19,0,0,1-.92-6.08,18.5,18.5,0,0,1,1-6.11,13.85,13.85,0,0,1,2.7-4.71,11.83,11.83,0,0,1,4.23-3,13.89,13.89,0,0,1,5.55-1.07,14.16,14.16,0,0,1,5.63,1.07,11.66,11.66,0,0,1,4.23,3,13.61,13.61,0,0,1,2.65,4.71A19.06,19.06,0,0,1,621.36,380.41Zm-4.82,0a15.56,15.56,0,0,0-.64-4.66,10.37,10.37,0,0,0-1.79-3.46,7.56,7.56,0,0,0-2.73-2.14,8.54,8.54,0,0,0-6.91,0,7.56,7.56,0,0,0-2.73,2.14,10.33,10.33,0,0,0-1.79,3.46,17.17,17.17,0,0,0,0,9.29,10,10,0,0,0,1.8,3.44,7.75,7.75,0,0,0,2.74,2.13,8.12,8.12,0,0,0,3.46.73,8,8,0,0,0,3.44-.73,7.66,7.66,0,0,0,2.71-2.13,10.19,10.19,0,0,0,1.79-3.44A15.46,15.46,0,0,0,616.53,380.41Z"/><path class="cls-2" d="M629,394.53V351.4h4.62v43.13Z"/><path class="cls-2" d="M654,395.27a15.13,15.13,0,0,1-4-.48,10.72,10.72,0,0,1-3.08-1.34,9,9,0,0,1-2.25-2.07,10.18,10.18,0,0,1-1.46-2.64,10.45,10.45,0,0,1-.6-2.35,20.33,20.33,0,0,1-.18-2.8V366.23h4.62v17.33a10.74,10.74,0,0,0,.63,3.93,5.85,5.85,0,0,0,2.31,2.81,7.37,7.37,0,0,0,4.07,1,7.14,7.14,0,0,0,4.21-1.13,6.21,6.21,0,0,0,2.28-3,11.08,11.08,0,0,0,.51-3.6V366.23h4.62v17.39a20.31,20.31,0,0,1-.16,2.67,11.83,11.83,0,0,1-.52,2.28,10.34,10.34,0,0,1-1.47,2.7,9.13,9.13,0,0,1-2.31,2.13,11.1,11.1,0,0,1-3.17,1.38A15.45,15.45,0,0,1,654,395.27Z"/><path class="cls-2" d="M689.3,394.59a9.55,9.55,0,0,1-1.82.45,19.68,19.68,0,0,1-2.92.24,12.18,12.18,0,0,1-3.87-.55,7.28,7.28,0,0,1-2.73-1.58,6.41,6.41,0,0,1-1.62-2.49,9.36,9.36,0,0,1-.54-3.25V370.2h-5.45v-4h5.45v-7.74h4.62v7.74h8.46v4h-8.46v16.5a5.62,5.62,0,0,0,.28,1.82,3.68,3.68,0,0,0,.89,1.44,4.17,4.17,0,0,0,1.56,1,6.8,6.8,0,0,0,2.29.34,13.59,13.59,0,0,0,2-.15,15.33,15.33,0,0,0,1.89-.39Z"/><path class="cls-2" d="M695.73,359.65V354.5h4.62v5.15Zm.12,34.88v-28.3h4.62v28.3Z"/><path class="cls-2" d="M734.93,380.41a18.39,18.39,0,0,1-1,6.08,13.69,13.69,0,0,1-2.7,4.69,12,12,0,0,1-4.21,3,13.78,13.78,0,0,1-5.54,1.07,14.13,14.13,0,0,1-5.64-1.07,11.92,11.92,0,0,1-4.23-3,13.32,13.32,0,0,1-2.67-4.69,19,19,0,0,1-.92-6.08,18.5,18.5,0,0,1,1-6.11,13.85,13.85,0,0,1,2.7-4.71,11.83,11.83,0,0,1,4.23-3,13.89,13.89,0,0,1,5.55-1.07,14.16,14.16,0,0,1,5.63,1.07,11.66,11.66,0,0,1,4.23,3,13.61,13.61,0,0,1,2.65,4.71A19.06,19.06,0,0,1,734.93,380.41Zm-4.82,0a15.56,15.56,0,0,0-.64-4.66,10.37,10.37,0,0,0-1.79-3.46,7.56,7.56,0,0,0-2.73-2.14,8.54,8.54,0,0,0-6.91,0,7.56,7.56,0,0,0-2.73,2.14,10.33,10.33,0,0,0-1.79,3.46,17.17,17.17,0,0,0,0,9.29,10,10,0,0,0,1.8,3.44,7.75,7.75,0,0,0,2.74,2.13,8.12,8.12,0,0,0,3.46.73,8,8,0,0,0,3.44-.73,7.66,7.66,0,0,0,2.71-2.13,10.19,10.19,0,0,0,1.79-3.44A15.46,15.46,0,0,0,730.1,380.41Z"/><path class="cls-2" d="M746.69,370.17h.09a14.93,14.93,0,0,1,1.71-1.83,11.16,11.16,0,0,1,2.1-1.49,10.88,10.88,0,0,1,2.55-1,12.74,12.74,0,0,1,6.66.18,7.49,7.49,0,0,1,2.95,1.73,8.29,8.29,0,0,1,2,3.11,13.37,13.37,0,0,1,.73,4.72v18.94h-4.62v-18.2q0-3.66-1.42-5.27a5.2,5.2,0,0,0-4.13-1.61,8.94,8.94,0,0,0-4.62,1.33,12.3,12.3,0,0,0-3.84,3.65v20.11h-4.62v-28.3h3.57Z"/><path class="cls-2" d="M777.7,373.77a3.38,3.38,0,0,0,.5,1.91,3.74,3.74,0,0,0,1.33,1.21,8.54,8.54,0,0,0,1.92.76q1.09.3,2.26.54,1.6.36,3,.79a9,9,0,0,1,2.64,1.29,6.28,6.28,0,0,1,2,2.34,8.52,8.52,0,0,1,.74,3.83,8.33,8.33,0,0,1-.83,3.8,7.71,7.71,0,0,1-2.35,2.77,11,11,0,0,1-3.63,1.7,17.54,17.54,0,0,1-4.65.58,22.21,22.21,0,0,1-2.81-.16,18.24,18.24,0,0,1-2.23-.42,15.1,15.1,0,0,1-1.65-.52,11,11,0,0,1-1.13-.51v-3.87a24.45,24.45,0,0,0,3.48,1.13,16.22,16.22,0,0,0,3.8.42,13.43,13.43,0,0,0,3-.3,7.53,7.53,0,0,0,2.27-.88,4.16,4.16,0,0,0,1.46-1.46,4,4,0,0,0,.51-2,3.76,3.76,0,0,0-.47-2,3.92,3.92,0,0,0-1.26-1.28,7.61,7.61,0,0,0-1.83-.83q-1-.33-2.18-.6-1.49-.33-3-.78a10.69,10.69,0,0,1-2.79-1.25,6.06,6.06,0,0,1-2-2.19,7.24,7.24,0,0,1-.77-3.56,8.7,8.7,0,0,1,.8-3.87,7.69,7.69,0,0,1,2.17-2.71A9.45,9.45,0,0,1,779,366a13.51,13.51,0,0,1,3.84-.54,20.11,20.11,0,0,1,4.36.45,21.67,21.67,0,0,1,3.65,1.13V371a27.09,27.09,0,0,0-3.53-1.12,16.76,16.76,0,0,0-3.68-.46,9.92,9.92,0,0,0-2.73.33,5.32,5.32,0,0,0-1.86.91A3.47,3.47,0,0,0,778,372,4.41,4.41,0,0,0,777.7,373.77Z"/><path class="cls-2" d="M167.77,286.78a37.3,37.3,0,0,1,8.38.92,24.78,24.78,0,0,1,6.86,2.57v8.19a55,55,0,0,0-7.36-2.29,31,31,0,0,0-6.86-.76,23,23,0,0,0-7.3,1.21,17,17,0,0,0-6.47,4,19.92,19.92,0,0,0-4.6,7.3,31.58,31.58,0,0,0-1.75,11.27,29.81,29.81,0,0,0,1.3,9,20.23,20.23,0,0,0,3.87,7.14,17.47,17.47,0,0,0,6.44,4.7,22.29,22.29,0,0,0,9,1.68,35.73,35.73,0,0,0,7.43-.79,42.14,42.14,0,0,0,7.3-2.25v8.19a17.26,17.26,0,0,1-2.83,1.27,31.91,31.91,0,0,1-3.84,1.11,44.09,44.09,0,0,1-4.44.76,38.88,38.88,0,0,1-4.7.29,35.62,35.62,0,0,1-11.52-1.84,25.82,25.82,0,0,1-9.49-5.65,26.57,26.57,0,0,1-6.41-9.65,37,37,0,0,1-2.35-13.84,42.75,42.75,0,0,1,1.24-10.73,32,32,0,0,1,3.4-8.38,25.49,25.49,0,0,1,5-6.16A28.17,28.17,0,0,1,161,287.51,33.2,33.2,0,0,1,167.77,286.78Z"/><path class="cls-2" d="M222.15,350.26a32.29,32.29,0,0,1-8.44-1,22.87,22.87,0,0,1-6.57-2.86,19.11,19.11,0,0,1-4.79-4.41,21.75,21.75,0,0,1-3.11-5.62,22.28,22.28,0,0,1-1.27-5,43.31,43.31,0,0,1-.38-6v-37h9.84v36.94a22.88,22.88,0,0,0,1.33,8.38,12.47,12.47,0,0,0,4.92,6,15.71,15.71,0,0,0,8.66,2.19,15.19,15.19,0,0,0,9-2.41,13.22,13.22,0,0,0,4.86-6.47,23.66,23.66,0,0,0,1.08-7.68V288.37h9.84v37.07a43.39,43.39,0,0,1-.35,5.68,25.11,25.11,0,0,1-1.11,4.86,22,22,0,0,1-3.14,5.75,19.47,19.47,0,0,1-4.92,4.54,23.71,23.71,0,0,1-6.76,3A33,33,0,0,1,222.15,350.26Z"/><path class="cls-2" d="M297.93,296.37h-.76a37,37,0,0,0-6.86.63,28.9,28.9,0,0,0-6.32,1.94,23.9,23.9,0,0,0-5.33,3.21,17.18,17.18,0,0,0-4,4.51v42h-9.84v-60.3h7.62l1.9,9.58h.19a22.42,22.42,0,0,1,3.59-4.38,24.49,24.49,0,0,1,10.63-5.94,25.46,25.46,0,0,1,6.67-.86c.42,0,.86,0,1.3,0s.84.05,1.17.1Z"/><path class="cls-2" d="M308.39,348.67v-60.3h9.84v60.3Z"/><path class="cls-2" d="M362.19,350.26a32.29,32.29,0,0,1-8.44-1,22.87,22.87,0,0,1-6.57-2.86,19.11,19.11,0,0,1-4.79-4.41,21.75,21.75,0,0,1-3.11-5.62,22.28,22.28,0,0,1-1.27-5,43.31,43.31,0,0,1-.38-6v-37h9.84v36.94a22.88,22.88,0,0,0,1.33,8.38,12.47,12.47,0,0,0,4.92,6,15.71,15.71,0,0,0,8.66,2.19,15.19,15.19,0,0,0,9-2.41,13.22,13.22,0,0,0,4.86-6.47,23.66,23.66,0,0,0,1.08-7.68V288.37h9.84v37.07a43.39,43.39,0,0,1-.35,5.68,25.11,25.11,0,0,1-1.11,4.86,22,22,0,0,1-3.14,5.75,19.47,19.47,0,0,1-4.92,4.54,23.71,23.71,0,0,1-6.76,3A33,33,0,0,1,362.19,350.26Z"/><path class="cls-2" d="M450.15,348.67h-9.84V309.89a22.83,22.83,0,0,0-.86-6.7,11.85,11.85,0,0,0-2.48-4.54,9.67,9.67,0,0,0-3.87-2.6,14.62,14.62,0,0,0-5-.83,17.13,17.13,0,0,0-9.58,2.83,28.47,28.47,0,0,0-7.74,7.78v42.85h-9.84v-60.3h7.62l1.9,8.38h.19a34.68,34.68,0,0,1,3.59-3.9,23.15,23.15,0,0,1,4.32-3.17,21.72,21.72,0,0,1,5.24-2.13,24.09,24.09,0,0,1,6.22-.76A18.48,18.48,0,0,1,441.14,290a20.88,20.88,0,0,1,6.86,8.82h.25A32.07,32.07,0,0,1,457.4,290a22.27,22.27,0,0,1,12-3.21,27.87,27.87,0,0,1,6.74.89,17.05,17.05,0,0,1,6.55,3.27,18,18,0,0,1,5,6.57,25.46,25.46,0,0,1,2,10.79v40.37h-9.84V309.89a22.83,22.83,0,0,0-.86-6.7,11.85,11.85,0,0,0-2.48-4.54,9.67,9.67,0,0,0-3.87-2.6,14.62,14.62,0,0,0-5-.83,17.29,17.29,0,0,0-9.62,2.83,28.29,28.29,0,0,0-7.78,7.78Z"/></g></svg>